<svg width="50" height="50" viewBox="0 0 50 50" fill="none" xmlns="http://www.w3.org/2000/svg">
<circle cx="25" cy="25" r="25" fill="#1A1916"/>
<path d="M20.472 20.51C20.8267 17.774 21.65 15.6713 22.942 14.202C24.2593 12.7073 25.982 11.96 28.11 11.96C30.238 11.96 31.302 12.6947 31.302 14.164C31.302 15.152 31.0613 16.064 30.58 16.9C30.124 17.7107 29.5033 18.3947 28.718 18.952C27.1727 19.9907 25.3613 20.738 23.284 21.194C22.7773 25.5513 22.03 28.6673 21.042 30.542C23.3727 31.3273 24.9433 31.834 25.754 32.062C26.5647 32.2647 27.4133 32.366 28.3 32.366C29.212 32.366 29.8327 31.9987 30.162 31.264C30.4913 30.5293 30.732 30.162 30.884 30.162C31.188 30.162 31.34 30.352 31.34 30.732C31.34 31.9227 30.8967 32.936 30.01 33.772C29.1233 34.608 28.1607 35.026 27.122 35.026C26.058 35.026 25.0953 34.8487 24.234 34.494C23.3727 34.1393 22.828 33.9113 22.6 33.81C22.372 33.7087 21.9033 33.4933 21.194 33.164C20.51 32.8347 20.0287 32.6067 19.75 32.48C18.7873 33.4933 17.4953 34 15.874 34C15.2153 34 14.6327 33.7593 14.126 33.278C13.6193 32.7967 13.366 32.2267 13.366 31.568C13.366 30.124 14.1893 29.402 15.836 29.402C16.5453 29.402 17.5333 29.5667 18.8 29.896C19.2813 28.376 19.788 25.6147 20.32 21.612C20.0413 21.6373 19.6613 21.65 19.18 21.65C18.724 21.65 18.496 21.574 18.496 21.422C18.496 20.9407 19.1547 20.6367 20.472 20.51ZM23.398 20.092C25.0193 19.7373 26.3493 19.142 27.388 18.306C28.452 17.4447 28.984 16.33 28.984 14.962C28.984 13.594 28.5153 12.91 27.578 12.91C25.526 12.91 24.1327 15.304 23.398 20.092ZM17.926 31.682C16.4567 31.0487 15.5447 30.732 15.19 30.732C14.8607 30.732 14.696 30.9093 14.696 31.264C14.696 31.6187 14.848 31.9227 15.152 32.176C15.4813 32.4293 15.8993 32.556 16.406 32.556C16.9127 32.556 17.4193 32.2647 17.926 31.682Z" fill="white"/>
</svg>
