<svg width="20" height="15" viewBox="0 0 20 20" fill="none" xmlns="http://www.w3.org/2000/svg">
<path d="M11.1049 10L19.7712 1.33372C20.0763 1.0286 20.0763 0.533914 19.7712 0.228837C19.466 -0.07624 18.9714 -0.0762791 18.6663 0.228837L9.99998 8.89514L1.33372 0.228837C1.0286 -0.0762791 0.533914 -0.0762791 0.228837 0.228837C-0.07624 0.533953 -0.0762791 1.02864 0.228837 1.33372L8.8951 9.99998L0.228837 18.6663C-0.0762791 18.9714 -0.0762791 19.4661 0.228837 19.7712C0.381376 19.9237 0.581336 20 0.781297 20C0.981257 20 1.18118 19.9237 1.33376 19.7712L9.99998 11.1049L18.6662 19.7712C18.8188 19.9237 19.0187 20 19.2187 20C19.4187 20 19.6186 19.9237 19.7712 19.7712C20.0763 19.466 20.0763 18.9714 19.7712 18.6663L11.1049 10Z" fill="white"/>
</svg>
