<svg width="60" height="60" viewBox="0 0 60 60" fill="none" xmlns="http://www.w3.org/2000/svg">
<path d="M59.8359 17.6402C59.6953 14.4521 59.1798 12.2604 58.4413 10.3612C57.6794 8.34529 56.5073 6.54043 54.9717 5.04005C53.4713 3.51631 51.6545 2.3323 49.6619 1.58234C47.7518 0.843823 45.5715 0.328281 42.3834 0.18772C39.1716 0.0352547 38.152 0 30.0059 0C21.8597 0 20.8401 0.0352547 17.6402 0.175816C14.4521 0.316377 12.2604 0.832377 10.3617 1.57044C8.34529 2.3323 6.54043 3.50441 5.04005 5.04005C3.51631 6.54043 2.33276 8.35719 1.58234 10.3498C0.843823 12.2604 0.328281 14.4402 0.18772 17.6283C0.0352547 20.8401 0 21.8597 0 30.0059C0 38.152 0.0352547 39.1716 0.175816 42.3716C0.316376 45.5596 0.832377 47.7513 1.57089 49.6505C2.33276 51.6664 3.51631 53.4713 5.04005 54.9717C6.54043 56.4954 8.35719 57.6794 10.3498 58.4294C12.2604 59.1679 14.4402 59.6834 17.6287 59.824C20.8282 59.965 21.8483 59.9998 29.9944 59.9998C38.1405 59.9998 39.1602 59.965 42.3601 59.824C45.5481 59.6834 47.7399 59.1679 49.6386 58.4294C53.6709 56.8704 56.8589 53.6824 58.4179 49.6505C59.156 47.7399 59.672 45.5596 59.8125 42.3716C59.9531 39.1716 59.9884 38.152 59.9884 30.0059C59.9884 21.8597 59.9765 20.8401 59.8359 17.6402ZM54.4328 42.1371C54.3037 45.0674 53.8115 46.6497 53.4012 47.7046C52.393 50.3185 50.3185 52.3931 47.7046 53.4012C46.6497 53.8115 45.0559 54.3037 42.1371 54.4323C38.9724 54.5733 38.0233 54.6081 30.0178 54.6081C22.0122 54.6081 21.0512 54.5733 17.8979 54.4323C14.9677 54.3037 13.3853 53.8115 12.3304 53.4012C11.0297 52.9205 9.84567 52.1586 8.88464 51.1623C7.88835 50.1894 7.12648 49.0173 6.64574 47.7165C6.2355 46.6616 5.74331 45.0674 5.61465 42.149C5.47363 38.9844 5.43884 38.0348 5.43884 30.0292C5.43884 22.0237 5.47363 21.0626 5.61465 17.9098C5.74331 14.9796 6.2355 13.3972 6.64574 12.3423C7.12648 11.0411 7.88835 9.85758 8.89654 8.89609C9.86902 7.8998 11.0411 7.13793 12.3423 6.65764C13.3972 6.24741 14.9915 5.75521 17.9098 5.6261C21.0745 5.48554 22.0241 5.45028 30.0292 5.45028C38.0467 5.45028 38.9958 5.48554 42.149 5.6261C45.0793 5.75521 46.6616 6.24741 47.7165 6.65764C49.0173 7.13793 50.2013 7.8998 51.1623 8.89609C52.1586 9.86902 52.9205 11.0411 53.4012 12.3423C53.8115 13.3972 54.3037 14.991 54.4328 17.9098C54.5733 21.0745 54.6086 22.0237 54.6086 30.0292C54.6086 38.0348 54.5733 38.9725 54.4328 42.1371Z" fill="white"/>
<path d="M30.0056 14.5927C21.4964 14.5927 14.5924 21.4962 14.5924 30.0058C14.5924 38.5155 21.4964 45.419 30.0056 45.419C38.5152 45.419 45.4187 38.5155 45.4187 30.0058C45.4187 21.4962 38.5152 14.5927 30.0056 14.5927ZM30.0056 40.004C24.4852 40.004 20.0074 35.5266 20.0074 30.0058C20.0074 24.4851 24.4852 20.0077 30.0056 20.0077C35.5264 20.0077 40.0037 24.4851 40.0037 30.0058C40.0037 35.5266 35.5264 40.004 30.0056 40.004Z" fill="white"/>
<path d="M49.6269 13.9833C49.6269 15.9704 48.0157 17.5816 46.0281 17.5816C44.0411 17.5816 42.4299 15.9704 42.4299 13.9833C42.4299 11.9957 44.0411 10.385 46.0281 10.385C48.0157 10.385 49.6269 11.9957 49.6269 13.9833Z" fill="white"/>
</svg>
