<svg width="60" height="60" viewBox="0 0 60 60" fill="none" xmlns="http://www.w3.org/2000/svg">
<path d="M57.9482 0H1.54956C0.693656 0 0 0.693656 0 1.54956V58.4504C0 59.3065 0.693656 60 1.54956 60H20.2982V59.9864C21.1444 59.9767 21.7927 59.5029 21.8225 58.7013C21.8994 56.6178 21.8451 54.5299 21.8451 52.5156C20.3351 52.586 18.8935 52.7768 17.4681 52.6946C14.3245 52.5135 11.9088 51.1722 10.6559 48.0939C9.91377 46.2702 8.7955 44.7104 7.05391 43.6696C6.72868 43.475 6.44433 43.1885 6.19547 42.8976C5.87025 42.5182 5.93109 42.1285 6.44497 42.0243C6.96339 41.9189 7.52976 41.8453 8.041 41.9409C10.0489 42.3177 11.4373 43.577 12.5002 45.252C14.6017 48.5656 17.8366 49.58 21.476 48.0497C21.6789 47.9644 21.9368 47.7576 21.9751 47.5688C22.2685 46.102 22.8167 44.7645 23.9215 43.5919C22.6932 43.3644 21.5555 43.197 20.4398 42.9383C17.2269 42.1949 14.3406 40.8574 12.23 38.2011C10.5079 36.0343 9.72048 33.4977 9.35849 30.7981C8.79159 26.5697 9.29902 22.6117 12.2028 19.2327C12.3495 19.062 12.4291 18.7122 12.3638 18.4996C11.6366 16.1233 11.7477 13.767 12.4685 11.4172C12.8467 10.1831 12.952 10.1216 14.2113 10.2936C14.2883 10.304 14.3632 10.3233 14.4396 10.3363C16.9639 10.7539 19.1366 11.9763 21.277 13.2886C21.5647 13.4651 22.0029 13.5749 22.3191 13.498C27.4311 12.2575 32.5335 12.2627 37.6449 13.5026C37.9416 13.5743 38.3379 13.4722 38.6216 13.3235C39.7852 12.7152 40.8991 12.008 42.0776 11.4313C43.4486 10.761 44.8927 10.2567 46.4475 10.2845C46.7196 10.2897 47.1405 10.5495 47.2315 10.7901C48.167 13.2685 48.3642 15.7942 47.6188 18.3735C47.5392 18.6488 47.6575 19.0413 47.8056 19.3127C48.5413 20.6625 49.5684 21.9082 50.0339 23.34C51.4529 27.7041 50.9358 32.0256 49.0042 36.1272C47.2342 39.8869 43.9516 41.792 40.0659 42.7747C38.7536 43.1064 37.409 43.308 35.9933 43.586C37.8485 45.5241 38.1394 47.8893 38.1065 50.3665C38.0723 52.9218 38.0813 55.4779 38.08 58.0339C38.0793 59.2718 38.6197 59.9557 39.5629 59.9958C39.5622 59.9997 59.4972 59.9997 59.4972 59.9997V1.54956C59.497 0.693656 58.8035 0 57.9482 0Z" fill="white"/>
</svg>
